<svg width="101" height="193" xmlns="http://www.w3.org/2000/svg" xmlns:xlink="http://www.w3.org/1999/xlink" xml:space="preserve" overflow="hidden"><defs><clipPath id="clip0"><rect x="0" y="0" width="101" height="193"/></clipPath></defs><g clip-path="url(#clip0)"><path d="M86.5715 34.4643 14.4286 34.4643 14.4286 13.7857 86.5715 13.7857 86.5715 34.4643ZM86.5715 68.9285 14.4286 68.9285 14.4286 48.25 86.5715 48.25 86.5715 68.9285ZM50.5 172.321C44.3681 172.321 39.6786 167.841 39.6786 161.982 39.6786 156.123 44.3681 151.643 50.5 151.643 56.632 151.643 61.3215 156.123 61.3215 161.982 61.3215 167.841 56.632 172.321 50.5 172.321ZM86.5715 0 14.4286 0C6.49286 0 0 6.20357 0 13.7857L0 179.214C0 186.796 6.49286 193 14.4286 193L86.5715 193C94.5072 193 101 186.796 101 179.214L101 13.7857C101 6.20357 94.5072 0 86.5715 0Z" fill="#F2F2F2" fill-rule="evenodd"/></g></svg>